<svg xmlns="http://www.w3.org/2000/svg" viewBox="0 0 120 120">
  <defs>
    <linearGradient id="g" x1="0" y1="0" x2="1" y2="1">
      <stop offset="0" stop-color="#2b6ef2"></stop>
      <stop offset="1" stop-color="#6ea8ff"></stop>
    </linearGradient>
  </defs>
  <rect x="10" y="10" width="100" height="100" rx="26" fill="url(#g)"></rect>
  <path d="M60 32c10 9 20 12 20 12v18c0 18-10 28-20 34-10-6-20-16-20-34V44s10-3 20-12z" fill="rgba(0,0,0,0.25)"></path>
  <path d="M60 36c8 7 16 9 16 9v16c0 15-8 23-16 28-8-5-16-13-16-28V45s8-2 16-9z" fill="white" opacity="0.95"></path>
</svg>
